<svg xmlns="http://www.w3.org/2000/svg" width="158.8564mm" height="55.8799mm" viewBox="0 0 450.3016 158.3998"><path d="M16.6924,1.7727c-2.5069,1.5967-3.3037,3.9922-3.191,6.96l-.227,40.2783C12.9316,59.7361,17.1489,70.69,27.4009,75.368c11.393,5.708,23.9257-.1153,32.6967-7.189l.2276-.7974.57-58.3061a6.408,6.408,0,0,0-3.3032-6.2779c-.6846-.3413-1.5952-.3413-1.7095-1.14l.1143-.2275c5.3549.684,10.8222.2275,16.1772.2275.2275,0,.4546,0,.4546.2271-.4546.913-1.48.913-2.1641,1.4848-2.5058,2.2822-2.6186,5.8179-2.6186,9.2422l-.7993,56.3667c.2275,3.0811-.2276,7.0752,2.7358,9.0147.7969.57,1.5942.57,2.3916,1.14a.3452.3452,0,0,1-.4556.3423c-4.8994-.2251-9.9111-.9126-14.9238-.2251-.1147-.1172-.1147-.231-.1147-.4566,2.7348-1.7138,3.4179-4.9087,3.4179-8.1035-.4546-.4565-.6831.2276-1.2519.57-9.9121,7.3028-23.47,11.981-35.8877,7.0757C14.4136,75.368,8.0342,66.2415,7.35,57.5677c-1.0239-8.1-.34-25.56-.34-25.56.2275-7.9878.4555-16.3154-.1143-24.3037-.4565-2.6231-3.3037-4.7915-5.6968-5.59,0-.2294.2276-.3413.3418-.4565,4.7857,0,9.4575.6855,14.1275-.2275h1.0249ZM94.8491,73.9988c.1147,1.5982,1.5957,2.8521,2.8477,3.54.7978.4546,1.937.3408,2.6215,1.0244l-.457.4565a103.454,103.454,0,0,0-16.0635.1138c-.34-.9111,2.0513-1.0264,2.8487-1.5947,2.2788-1.1421,2.9624-3.4244,2.9624-5.5943l.6831-65.38A9.1862,9.1862,0,0,0,84.14,2.2293c-.4546-.229-.2275-.4566-.2275-.6856l.6831-.229A51.8575,51.8575,0,0,0,99.1792.8582c.227.9145-.6846,1.3711-.6846,2.17a5.6448,5.6448,0,0,0,.9116,4.4492l48.0757,56.0254.3428-.23.227-51.6875c-.227-2.9672-.1128-6.0468-2.8466-7.8725-.7969-.7993-2.2788-.5718-3.0752-1.4829l.7964-.3447A78.0606,78.0606,0,0,0,158.4184,1.43l.23.2275c.2256.5718-.6841.7988-.9121.9126a6.0715,6.0715,0,0,0-3.9873,2.5112c-1.8237,5.25-.7993,10.041-1.2519,15.8594v2.2817L152.039,77.993c-.1142.57.23,1.2573-.227,1.4824L151.47,79.25,125.9512,49.011C115.1294,36.6878,105.103,24.1375,94.5063,12.1551h-.1128c0,9.9272-.9111,52.1455.4556,61.8437M184.0571,3.597c-3.0757,2.0546-2.3911,4.1074-2.62,7.1889,0,0-.229,59.7905.6831,64.6973.3418,1.8242,2.2788,2.7388,3.76,3.65l-.5694.4565c-4.7847-.9111-10.3667-.3393-15.4941-.23-.4561-.9106,1.0249-.6816,1.3667-1.1381a3.4157,3.4157,0,0,0,2.6216-2.1685l.6821-3.3105V10.2141c-.2276-2.1669-.4551-4.9038-2.3916-6.1591l-.4566-.6856c-1.0249-.7993-2.62-.4565-3.0742-1.4848l.34-.1119a73.176,73.176,0,0,0,17.3159-.1152c.4565,0,.6841-.2275,1.14,0-.6831,1.14-2.2768,1.14-3.3037,1.94M323.6914,39.9964a95.522,95.522,0,0,0-16.18.4565l-.11.4566c-.1152,11.2949-.455,23.0483.2276,34.4585l.4541.229c7.7471-.5718,17.6611.57,25.749-1.0264,2.3926-.5718,4.5537-3.0811,5.58-5.2481a.2366.2366,0,0,1,.4551,0l.2324.1119a32.8952,32.8952,0,0,1-2.6231,7.7592,5.3515,5.3515,0,0,1-3.3037,2.0567c-13.33.11-24.9492-.8008-38.51,0a.8505.8505,0,0,1-.2256-.6875c1.3681-.57,3.876-1.8257,4.5556-4.2212l.4571-2.9658.1152-20.4253V11.5847c-.23-2.7368,0-6.5034-2.7334-8.4443-.458-.6841-1.709-.4546-1.709-1.5967h.4512c10.0313,0,19.4873-.1137,29.625-.3427.6846.1137,1.5947.1137,2.0488.5717,1.3682,1.8243,1.5948,3.8789,1.8262,6.1607-.458.3413-.6875-.229-.9131-.3428-1.3672-2.6245-4.1045-3.1948-6.8359-3.0791l-14.583.3408-.3409.1138c0,10.6113-.3447,21.11.11,31.4946l.458.1133c6.1553-.229,12.418.2275,18.3428-.8008a6.1514,6.1514,0,0,0,3.8721-3.6494c.1171-.229.3437-.229.6835-.1157a99.6009,99.6009,0,0,0-.2255,11.64.35.35,0,0,1-.458,0s.9121-3.081-6.4932-3.6513M387.9482,4.282v.4566a24.795,24.795,0,0,1-.2256,8.2158c-.1162.3423-.3447.1133-.46.1133-1.9346-3.9922-6.378-8.3291-10.9336-8.7857-6.2656-1.4844-12.99.6841-16.4072,6.1626a14.7684,14.7684,0,0,0,0,13.1206c1.71,2.7388,4.8984,5.3638,7.5214,7.8745,6.7188,5.3618,13.8975,9.8125,20.5049,15.8594,4.3291,4.9053,5.24,12.8916,3.19,18.7134-1.8223,6.0469-7.52,11.98-13.7862,13.1206-7.7431,2.0561-15.72-.3394-23.4677-.7974-.23-3.9941-.6826-7.9863-.9112-12.21,0-.4561.4561-.4561.8008-.3409.68,1.14.68,2.5093,1.1367,3.65,3.19,7.1894,11.0469,8.4448,18.1153,7.9882,5.35-.456,10.9365-3.7646,12.875-9.2436,2.0478-4.9068.5664-10.8384-2.6241-14.7173a47.3614,47.3614,0,0,0-8.8837-7.873c-7.9756-6.5049-20.5088-12.7793-20.6192-24.5328a18.55,18.55,0,0,1,8.3135-16.66c7.4043-5.02,17.8867-2.7383,25.8613-.1138m57.5342,5.021c4.2148,5.7061,4.44,14.7173,1.4814,20.8814-2.8486,6.5034-9.7988,10.6113-16.5195,10.9541a38.3251,38.3251,0,0,1-9.57-.3428.6589.6589,0,0,1-.2256-.7993l.6817-.1138c6.2656.9131,13.1.4551,17.2021-4.6792C443.4346,29.156,443.32,18.886,439.9,12.2688a15.0691,15.0691,0,0,0-11.5088-8.5566,31.3879,31.3879,0,0,0-10.3672.7993l-.2256.3408-.3437,16.4312.1152,51.0034c.2285,2.2837,1.4814,5.02,3.873,5.7061.6827.229,1.5987.1137,1.8223.9111-.7949.8008-2.2764.229-3.3027.3462a45.7136,45.7136,0,0,0-14.24.11,1.7475,1.7475,0,0,1-.7978-.11l.2275-.5718c1.71-.6855,4.1026-1.2559,5.2412-3.3105l.3389-2.625.3467-32.86-.2276-30.6953a8.5062,8.5062,0,0,0-4.4453-6.731c-.23-.3423,0-.6836.3428-.5717,13.1.6855,29.958-4.9053,38.7334,7.4184"/><polygon points="271.377 1.446 250.747 132.367 236.173 132.358 215.044 1.446 201.354 1.446 229.053 157.239 256.97 157.239 284.668 1.446 271.377 1.446"/><polygon points="258.077 1.447 243.458 102.543 228.834 1.446 258.077 1.447"/></svg>